<svg id="Capa_1" enable-background="new 0 0 512 512" height="512" viewBox="0 0 512 512" width="512" xmlns="http://www.w3.org/2000/svg"><g><path d="m358.253 110.508-11.074-27.891c-9.218 5.515-59.725 12.988-91.179 77.364-.002-.004-.005-.009-.007-.013-29.229-59.813-86.944-74.813-91.187-77.351l-11.074 27.891c3.001 2.269 87.193 23.811 87.268 114.395 0 .033-.007.064-.007.097h.015 14.985 15 .015c0-.033-.007-.064-.007-.097.074-90.529 84.251-112.127 87.252-114.395z" fill="#5ab267"/><path d="m271.007 225c0-.033-.007-.064-.007-.097.075-90.529 84.252-112.126 87.253-114.395l-11.074-27.891c-9.218 5.515-59.725 12.988-91.179 77.364-.002-.004-.005-.009-.007-.013v65.032h15z" fill="#288c64"/><path d="m97.716 160.005c-34.277-28.77-34.98-59.824-36.255-116.221l-.835-32.373 33.56-5.054c52.881-8.203 84.785-13.14 119.224 15.762 11.558 9.697 23.525 35.742 14.941 57.451-5.054 12.788-18.149 27.29-51.211 29.619 3.354 32.681-8.643 48.032-20.347 55.225-17.571 10.788-45.099 7.292-59.077-4.409z" fill="#8cd96b"/><path d="m355.192 164.414c-11.689-7.192-23.687-22.529-20.347-55.225-33.047-2.329-46.143-16.816-51.196-29.604-8.599-21.709 3.369-47.754 14.912-57.466 34.453-28.93 66.357-23.979 119.238-15.761l33.574 5.054-.85 32.461c-1.274 56.353-1.978 87.378-36.255 116.133-13.504 11.305-40.92 15.533-59.076 4.408z" fill="#5ab267"/><path d="m317.414 242.432c-13.946-20.157-36.885-32.432-61.421-32.432s-47.476 12.275-61.421 32.432c-25.635 7.207-43.579 30.381-43.579 57.568 0 6.841 1.157 13.564 3.413 19.995h101.587 101.587c2.256-6.431 3.413-13.154 3.413-19.995 0-27.187-17.945-50.361-43.579-57.568z" fill="#9b786f"/><path d="m360.993 300c0-27.188-17.944-50.361-43.579-57.568-13.946-20.157-36.885-32.432-61.421-32.432v109.995h101.587c2.255-6.431 3.413-13.154 3.413-19.995z" fill="#704c55"/><path d="m390.993 437.308v-137.308h-135-135v137.308c-18.691 14.092-30 36.24-30 59.692v15h165 165v-15c0-23.452-11.309-45.601-30-59.692z" fill="#ff7b4a"/><path d="m420.993 497c0-23.452-11.309-45.601-30-59.692v-137.308h-135v212h165z" fill="#ff435b"/></g></svg>