<svg xmlns="http://www.w3.org/2000/svg" viewBox="0 0 415.59 415"><defs><style>.cls-1{opacity:0.2;}.cls-2{fill:#650000;}.cls-3{fill:#ad511e;}.cls-4{opacity:0.6;}.cls-5{fill:#fff;}.cls-6{fill:#e0a2a2;}.cls-7{fill:#ea8383;}.cls-8{fill:#ff9331;}.cls-9{fill:#f5d5d5;}.cls-10{opacity:0.5;}.cls-11{opacity:0.3;}.cls-12{fill:#ff003d;}</style></defs><title>Asset 2</title><g id="Layer_2" data-name="Layer 2"><g id="Layer_1-2" data-name="Layer 1"><g class="cls-1"><ellipse class="cls-2" cx="209.38" cy="401.42" rx="206.21" ry="13.58"/></g><path class="cls-3" d="M101.16,97.72C94.8,103.33,70.32,111.88,58.84,92,53.72,83.07,51.18,68.49,54,45.41c2.11-17.22,5.17-28.23,8.77-34.69l.05-.11a26.27,26.27,0,0,1,1.88-2.86C76.65-7.81,93.19,19.64,101.16,38.51,112.08,64.37,110.31,89.64,101.16,97.72Z"/><g class="cls-4"><path class="cls-5" d="M101.67,98.3c-2.2,1.93-6.55,4.22-11.78,5.56a21.75,21.75,0,0,0,4.56-2.9c9.14-8.08,10.91-33.36,0-59.22-6.12-14.48-17.29-34-27.54-35.28C78.66-4.73,94.07,21.09,101.67,39.09,112.59,65,110.82,90.22,101.67,98.3Z"/></g><path class="cls-2" d="M80.64,107.61a33.1,33.1,0,0,1-5.23-.41A26.84,26.84,0,0,1,56.1,93.56C50,82.92,48.23,66.59,50.89,45,53,28.31,55.93,16.61,60,9.24l0,0L60.11,9a28.84,28.84,0,0,1,2.12-3.21C66.4.37,71-.3,74.07.09c14,1.8,26.51,28.92,30,37.19,10.71,25.36,10.35,53-.82,62.81h0C99.32,103.56,90.31,107.61,80.64,107.61Zm-15-95.5v0a.75.75,0,0,0-.07.12c-3.64,6.55-6.46,17.83-8.4,33.54C54.68,66,56.16,81,61.58,90.4A20.42,20.42,0,0,0,76.43,101c9.7,1.58,19.53-2.87,22.64-5.61,8-7,9.54-31.06-.82-55.61C90.32,21,80.05,7.23,73.27,6.37c-1.37-.18-3.48,0-6,3.31A21.36,21.36,0,0,0,65.64,12.11Zm35.52,85.61h0Z"/><path class="cls-6" d="M58.92,92.09,58.84,92c-4.08-7.08-6.51-17.73-5.92-33.4q.24-6.07,1.1-13.16c2.13-17.21,5.19-28.23,8.77-34.7l.06-.1,1.88-2.86S74,8.49,80.54,23.66a74.73,74.73,0,0,1,5,19.72c.42,3.17.74,6.65.93,10.42C88.81,98.3,58.92,92.09,58.92,92.09Z"/><g class="cls-1"><path class="cls-2" d="M58.92,92.09,58.84,92c-4.08-7.08-6.51-17.73-5.92-33.4,7-16.6,18.71-28,27.62-34.91a74.73,74.73,0,0,1,5,19.72c.42,3.17.74,6.65.93,10.42C88.81,98.3,58.92,92.09,58.92,92.09Z"/></g><path class="cls-2" d="M62.55,95.54a22.22,22.22,0,0,1-4.27-.36A3.15,3.15,0,0,1,56.39,94l-.08-.1a2.3,2.3,0,0,1-.21-.33C50,82.92,48.23,66.59,50.89,45,53,28.31,55.93,16.6,60,9.24l0,0a3.54,3.54,0,0,1,.19-.33L62.09,6A3.15,3.15,0,0,1,65,4.6C65.75,4.66,83.9,6.52,88.71,43c.45,3.41.76,7,1,10.67C90.54,70.72,86.94,82.86,79,89.72A25.06,25.06,0,0,1,62.55,95.54ZM60.9,89.15c2.69.21,8.91.12,14-4.29,6.39-5.52,9.23-15.92,8.45-30.89-.17-3.51-.48-6.94-.9-10.18C79.22,19.4,69.93,13,66.1,11.42l-.51.78,0,.05c-3.64,6.55-6.46,17.83-8.4,33.54C54.78,65.1,56,79.68,60.9,89.15Z"/><path class="cls-7" d="M58.92,92.09,58.84,92C59,53.41,80.53,44.86,85.57,43.38c.42,3.18.74,6.65.93,10.42C88.81,98.3,58.92,92.09,58.92,92.09Z"/><path class="cls-2" d="M62.55,95.54a22.22,22.22,0,0,1-4.27-.36A3.15,3.15,0,0,1,56.39,94l-.08-.1A3.25,3.25,0,0,1,55.68,92c.2-41.11,24.2-50.21,29-51.61a3.15,3.15,0,0,1,4,2.62c.45,3.41.76,7,1,10.67C90.54,70.72,86.94,82.86,79,89.72A25.06,25.06,0,0,1,62.55,95.54Zm-.49-6.33a19,19,0,0,0,12.83-4.35c6.39-5.52,9.23-15.92,8.45-30.89q-.15-3.13-.44-6.14C76,51.24,63,61.32,62.06,89.21Z"/><path class="cls-8" d="M405.22,375.87c-1.72,14-11.64,24.34-11.64,24.34h-283S91.89,402,89.93,388.52a16.53,16.53,0,0,1-.17-2.4c0-6.1,3.47-11.05,7.78-14.82A53.89,53.89,0,0,1,113.9,362c-.13-.79-.26-1.57-.36-2.35s-.17-1.38-.24-2.06a51.84,51.84,0,0,1,.45-14.5c3.13-17.5,14.91-25.36,14.91-25.36s0-.18,0-.27a76.58,76.58,0,0,1,1-24.95,101.58,101.58,0,0,1,2.79-11.1,109.35,109.35,0,0,1,8.33-20S40.13,226.5,24,214.43c-4.45-3.34-8-16.85-8.26-34.79-.36-23.95,5.07-55.82,21.88-81.9h0C53.74,72.79,80.22,53.15,122,50.78c69.56-4,112.8,40.76,136.58,78.16q1.58,2.48,3,4.9h0c14.42,23.93,20.68,43.69,20.68,43.69,61.65,39.45,86,91,95.65,125a176.8,176.8,0,0,1,5.76,28.75v0c.5,4.6.53,7.18.53,7.18s.3.19.45.3c11.89,8.17,17.63,16.77,19.78,24.88A31.91,31.91,0,0,1,405.22,375.87Z"/><g class="cls-4"><path class="cls-5" d="M405.22,375.19c-7.73-17.71-22.29-19.37-22.29-19.37,1.65-8.11.65-25.16.65-25.16h.08c.5,4.6.53,7.18.53,7.18l.45.3c11.89,8.17,17.63,16.78,19.78,24.89A31.85,31.85,0,0,1,405.22,375.19Z"/></g><g class="cls-4"><path class="cls-5" d="M118,370s-21.46,2.61-27.81,17.34l-.24.53a16.49,16.49,0,0,1-.17-2.39c0-6.11,3.47-11.05,7.78-14.83a54.14,54.14,0,0,1,16.36-9.32c-.13-.79-.26-1.57-.36-2.35s-.17-1.38-.24-2.06C113.3,356.89,115.05,365.58,118,370Z"/></g><g class="cls-4"><path class="cls-5" d="M187.84,315.13s-57.2-7.42-74.09,27.26C113.75,342.39,126.07,293.17,187.84,315.13Z"/></g><g class="cls-1"><path class="cls-2" d="M197.74,301.83s-22.68.62-27.4,7.62a94.83,94.83,0,0,0-41.72,7.31,76.59,76.59,0,0,1,1-24.95s9.88,21.53,30.57-6.39c0,0,3,9.35,34.2-10.56C194.39,274.86,177,293.31,197.74,301.83Z"/></g><g class="cls-1"><path class="cls-2" d="M215.3,214.73s-13.93,59-82.89,66a109.75,109.75,0,0,1,8.33-20S40.13,225.82,24,213.75c-4.45-3.34-8-16.84-8.26-34.78,6.65,18.17,22.87,43.27,62.48,55.16,66,19.81,103.27-.55,114.12-24.4C192.17,210.57,183.55,247.28,215.3,214.73Z"/></g><g class="cls-1"><path class="cls-2" d="M393.58,399.54h-283s-20.79,2-20.79-14.09c0-6.11,3.47-11.05,7.78-14.83,2.79,8.67,11.36,18.44,36.49,14.88,0,0-14.47-6.08-20.49-26.55A69.14,69.14,0,0,1,111,337.83a20,20,0,0,0,2.79,4.56c9,11.71,44.4,41.95,170.66,41.95,75,0,94-40.39,93.49-82.48a158.42,158.42,0,0,0-1.76-21.21c4.43,18.78,7.9,39,8.5,57.48.53,16.59-1.25,31.86-6.72,43.68,0,0,15.81,4.28,26.5-18.79C409.67,382.78,393.58,399.54,393.58,399.54Z"/></g><g class="cls-4"><path class="cls-5" d="M383.66,330.61l-.08.05c-31.67-110.76-107.2-147.34-107.2-147.34l-17.85-55c1.05,1.64,2.06,3.28,3,4.89h0c14.42,23.94,20.68,43.69,20.68,43.69C366.37,230.7,381.09,307,383.66,330.61Z"/></g><g class="cls-4"><path class="cls-5" d="M134.86,60.15a2.45,2.45,0,0,1,0,.27c0,3.06-7.5,5.54-16.75,5.54C111,66,105,64.5,102.53,62.43c-31.27,5.9-50,21.59-64.87,34.63,16.08-25,42.56-44.59,84.29-47C194.56,46,238.51,94.89,261.56,133.16,260.6,132.12,210.22,62.65,134.86,60.15Z"/></g><ellipse class="cls-3" cx="33.97" cy="155.27" rx="18.21" ry="24.65"/><path class="cls-9" d="M49.81,157.2c5.5-7.31,5.31-17.23,6.51-26.3A77.64,77.64,0,0,1,88.06,78.41a190.33,190.33,0,0,0-19.19,94.43c.19,3.37.47,6.8-.32,10.08-3.28,13.59-23,17.37-32,7.08C25.44,177.25,43.13,166.08,49.81,157.2Z"/><ellipse class="cls-3" cx="117.75" cy="171.43" rx="24.84" ry="33.62"/><path class="cls-2" d="M108.41,402.78c-3.93,0-11.7-.65-16.84-5.33a15.47,15.47,0,0,1-5-12c0-15,17.18-23.48,23.79-26.19-3.5-25.92,10.08-39.64,14.9-43.63-2.6-22.84,6.87-44.92,10.94-53.15-18.14-6.36-99.32-35.12-114.1-46.2-10.36-7.77-13.64-50.29-2.56-87,6.8-22.49,17.82-40.9,32.75-54.71,18.13-16.75,41.5-26.06,69.45-27.65,27.54-1.56,53.31,4.29,76.58,17.38C216.91,74.76,233.9,89.8,248.86,109a239.53,239.53,0,0,1,36,65.79c52,33.61,77.1,75.88,89,105.5,11.22,28,13.1,49.76,13.42,55.82,28.17,19.89,22.4,42.46,16.36,54.25a22.66,22.66,0,0,1-20.29,12.31H110.69C110.34,402.72,109.53,402.78,108.41,402.78ZM130.63,53q-4.22,0-8.5.25c-61.37,3.48-86.35,44.27-96.5,77.87-11.84,39.16-5.46,75.77.3,80.09,15.52,11.64,114.84,46.15,115.84,46.49a3.17,3.17,0,0,1,1.71,4.56c-.16.27-15.51,27.59-11.69,54.32a3.16,3.16,0,0,1-1.38,3.08c-.74.5-18.31,12.79-13.39,41.09a3.15,3.15,0,0,1-2.12,3.54c-.21.08-22,7.53-22,21.15a9.31,9.31,0,0,0,2.88,7.31c4.89,4.46,14.36,3.64,14.45,3.63l.3,0H383.37A16.37,16.37,0,0,0,398,387.5c6.33-12.36,8.76-30.55-15.61-47.05a3.16,3.16,0,0,1-1.38-2.58c0-.23-.52-24.14-13.13-55.47-11.62-28.86-36.22-70.14-87.36-102.88a3.08,3.08,0,0,1-1.31-1.7,235.42,235.42,0,0,0-35.48-65.06C212.82,73.08,174.79,53,130.63,53Z"/><path class="cls-2" d="M126.31,315c.77-.43,1.4-.73,2.09-1.06s1.35-.63,2-.92c1.36-.58,2.72-1.12,4.1-1.61a77.71,77.71,0,0,1,8.41-2.46,70,70,0,0,1,17.29-1.78,65.19,65.19,0,0,1,8.61.84,62,62,0,0,1,8.34,2.08,60.73,60.73,0,0,1,15.2,7.59,59.84,59.84,0,0,0-15.62-6.07,60.44,60.44,0,0,0-8.22-1.25,63.24,63.24,0,0,0-8.26,0,65.9,65.9,0,0,0-16.07,3.19,70,70,0,0,0-7.58,3c-1.23.56-2.44,1.18-3.62,1.82q-.88.48-1.74,1c-.56.33-1.17.71-1.6,1h0a3.17,3.17,0,0,1-3.6-5.21Z"/><path class="cls-2" d="M153.52,307.11c1.22-.72,2.35-1.28,3.54-1.86s2.37-1.08,3.58-1.57a66,66,0,0,1,7.38-2.5A57,57,0,0,1,183.36,299,44.7,44.7,0,0,1,211.83,309a45.21,45.21,0,0,0-13.59-6.48,44.48,44.48,0,0,0-14.82-1.5,55,55,0,0,0-14.53,3,64,64,0,0,0-6.85,2.83c-1.11.54-2.21,1.1-3.28,1.7s-2.15,1.25-3.08,1.88l0,0a2,2,0,1,1-2.24-3.26Z"/><path class="cls-2" d="M153.91,308.24a66,66,0,0,1,1.17-9.34,61.06,61.06,0,0,1,2.44-9,39.76,39.76,0,0,1,4-8.35,28.8,28.8,0,0,1,2.83-3.66,24.16,24.16,0,0,1,3.45-3,23.69,23.69,0,0,0-3.07,3.35,27,27,0,0,0-2.35,3.84,38.29,38.29,0,0,0-3,8.42,58.92,58.92,0,0,0-1.4,8.84,64,64,0,0,0-.15,8.85v.06a2,2,0,1,1-4,.23A.74.74,0,0,1,153.91,308.24Z"/><path class="cls-2" d="M156.42,307.25c.86-1.43,1.73-2.68,2.65-4s1.86-2.5,2.84-3.71q3-3.63,6.24-6.94A82.64,82.64,0,0,1,182.61,281a68.08,68.08,0,0,1,16.78-7.73,63.24,63.24,0,0,1,18.15-2.66,62.88,62.88,0,0,0-17.84,3.6,66.69,66.69,0,0,0-16,8.43,80.69,80.69,0,0,0-13.39,12.05,87.9,87.9,0,0,0-5.65,7c-.88,1.21-1.73,2.45-2.53,3.7s-1.6,2.56-2.25,3.78l0,0a2,2,0,0,1-3.5-1.85Z"/><path class="cls-2" d="M141.1,257.39l.85.08c.31,0,.64,0,1,.06.65,0,1.3,0,2,0,1.32,0,2.66,0,4-.14a63.89,63.89,0,0,0,8-1.09,71.94,71.94,0,0,0,15.44-5,79.17,79.17,0,0,0,14.11-8.29,90.37,90.37,0,0,0,12.29-11c3.74-4,7.25-8.51,11-12.72,1.88-2.12,3.74-4.24,5.7-6.28,1-1,1.92-2.07,2.91-3.09l3-3a166.85,166.85,0,0,1,12.56-11.37c2.22-1.76,4.45-3.49,6.81-5A41.6,41.6,0,0,1,248,186.4a41.06,41.06,0,0,0-7.12,4.46c-2.26,1.66-4.4,3.49-6.5,5.34a166.71,166.71,0,0,0-11.87,11.91l-2.81,3.14c-.92,1.05-1.81,2.13-2.72,3.2-1.84,2.12-3.58,4.32-5.33,6.5-3.52,4.37-6.72,8.94-10.44,13.35A94.57,94.57,0,0,1,189,246.39a83.38,83.38,0,0,1-14.52,9.49,76.54,76.54,0,0,1-16.35,6.17,69.71,69.71,0,0,1-8.67,1.61c-1.46.18-2.94.3-4.43.37-.75,0-1.5.06-2.26.06h-1.15c-.4,0-.75,0-1.26-.07a3.33,3.33,0,1,1,.54-6.64h.2Z"/><path class="cls-2" d="M273.91,364.75c-.7,2.73-1.37,5.39-1.83,8a31.25,31.25,0,0,0-.46,3.85,12.22,12.22,0,0,0,.24,3.4,3.68,3.68,0,0,0,.5,1.16,1.8,1.8,0,0,0,.65.64,3.18,3.18,0,0,0,.9.36l.62.11.87.07a19.62,19.62,0,0,0,6.89-.69,11.88,11.88,0,0,0,1.66-.53,16.24,16.24,0,0,0,1.61-.69c.51-.27,1-.51,1.55-.8s1-.66,1.47-1a24,24,0,0,0,5-5.09c2.81-4.06,4.59-9.11,5.9-14.59a26.25,26.25,0,0,1-1.6,17.07,23.22,23.22,0,0,1-5.61,7.32,22.23,22.23,0,0,1-8.3,4.36,22,22,0,0,1-9.38.53l-1.18-.22c-.43-.1-.91-.25-1.36-.39A8,8,0,0,1,269.4,386a7.8,7.8,0,0,1-1.07-1.22,7.17,7.17,0,0,1-.75-1.38,9.35,9.35,0,0,1-.63-2.77,14.33,14.33,0,0,1,.59-4.78,24.72,24.72,0,0,1,1.61-4.11,33,33,0,0,1,2.16-3.69A28,28,0,0,1,273.91,364.75Z"/><path class="cls-2" d="M116.9,360.3c.08.4.21.95.34,1.44s.29,1,.43,1.51c.31,1,.65,2,1,3a64.51,64.51,0,0,0,2.53,6,64,64,0,0,0,7,11.19,64,64,0,0,1-5-4.46,62.37,62.37,0,0,1-4.59-5,65.74,65.74,0,0,1-4.1-5.52c-.64-1-1.26-1.94-1.85-2.95-.29-.51-.59-1-.87-1.53s-.55-1-.84-1.67l0-.1a3.19,3.19,0,0,1,5.8-2.66A2.68,2.68,0,0,1,116.9,360.3Z"/><path class="cls-2" d="M387.36,337.73c-.21,2.77-.56,5.34-1,8s-.93,5.2-1.52,7.76-1.3,5.1-2.1,7.59a77.26,77.26,0,0,1-2.78,7.3,76.9,76.9,0,0,0,1.24-7.64c.27-2.55.45-5.1.5-7.65s0-5.1-.07-7.64-.3-5.11-.61-7.49v0a3.18,3.18,0,1,1,6.31-.82A3.53,3.53,0,0,1,387.36,337.73Z"/><path class="cls-3" d="M245.34,91.88c-.3,2.84-.65,5.54-1,8.12h0c-.3,2-.61,3.87-1,5.72a.13.13,0,0,1,0,.06c-.24,1.3-.5,2.58-.76,3.81q-.88,4.13-1.95,7.72c-14.13,48.75-48.29,27.85-61.51,21.51,0,0-33-19.57-27.93-40.25,0,0,5.77-17.09,14.1-36.76v0C176,36.49,190.89,7,203.15,4.13c13.5-3.11,29.77.42,38.14,22.63h0C246.46,40.44,248.65,61.21,245.34,91.88Z"/><g class="cls-1"><path class="cls-2" d="M240.62,117.32c-14.13,48.75-48.29,27.85-61.51,21.51,0,0-33-19.57-27.93-40.25,0,0,5.77-17.09,14.1-36.76C164.85,63.72,143.59,159.65,240.62,117.32Z"/></g><g class="cls-4"><path class="cls-5" d="M239.67,22.17c-8.85-11.36-21.07-13-31.58-10.55-21.44,5-55.79,83.55-56.91,86.13C152.1,95,181.67,8.31,203.12,3.36,215.81.44,230.94,3.37,239.67,22.17Z"/></g><path class="cls-6" d="M245.34,91.88c-.3,2.84-.65,5.54-1,8.12h0c-.41,2.1-.74,4-1,5.72a.13.13,0,0,1,0,.06,30.2,30.2,0,0,1-.76,3.81,43.34,43.34,0,0,1-16.71,23.56c-9.29,6.29-21.12,7.69-32.68-2.3C170,110.74,193.37,39.06,209,23.13s32.33,3.63,32.33,3.63h0C246.46,40.44,248.65,61.21,245.34,91.88Z"/><g class="cls-1"><path class="cls-2" d="M225.86,133.16c-9.29,6.29-21.12,7.69-32.68-2.3C170,110.74,193.37,39.06,209,23.13,209,23.13,248.5,66.23,225.86,133.16Z"/></g><path class="cls-7" d="M209,138c-5.13-.42-10.48-2.6-15.78-7.18-11.53-10-11.57-32.66-6.78-54.92C186.4,75.94,215.28,98.41,209,138Z"/><path class="cls-2" d="M209,141.2h-.26c-6.17-.5-12.09-3.18-17.6-7.94-14.87-12.88-11.27-41.85-7.8-58a3.19,3.19,0,0,1,2-2.31,3.16,3.16,0,0,1,3,.48c1.24,1,30.28,24.08,23.75,65.09A3.17,3.17,0,0,1,209,141.2ZM188.41,82.09c-4,22.37-1.55,39.11,6.84,46.38a26.16,26.16,0,0,0,11,5.95A64,64,0,0,0,188.41,82.09Z"/><path class="cls-2" d="M179.57,137.87c7.73,1.84,14.5,4.94,21.51,6.45a37.3,37.3,0,0,0,10.33.94,22.33,22.33,0,0,0,9.54-2.74,25.06,25.06,0,0,0,7.6-6.8,49.74,49.74,0,0,0,5.41-9.24,99.69,99.69,0,0,0,6.25-21.25l.29-.85a2.88,2.88,0,0,0-.32,1.34l0-.59,1-5.59,0,.47h0c0-.12,0-.23,0-.35l0-.12c.37-3,.8-6,1.12-9l.45-4.56.37-4.55c.43-6.08.67-12.16.61-18.22a142.35,142.35,0,0,0-1.23-18c-.41-3-.94-5.91-1.61-8.8a75.07,75.07,0,0,0-2.54-8.46l3,2.05h0A3.16,3.16,0,0,1,238.38,28l0-.12-.91-2.16a20.31,20.31,0,0,0-.95-2.13,38.43,38.43,0,0,0-2.24-4,29.87,29.87,0,0,0-5.76-6.9,24.78,24.78,0,0,0-16.12-6.29,20.93,20.93,0,0,0-2.24,0,21.5,21.5,0,0,0-2.26.18c-.75.11-1.5.15-2.25.32l-1.12.22-.56.11-.42.12a11.4,11.4,0,0,0-3.42,1.79A27.1,27.1,0,0,0,196.75,12a61.08,61.08,0,0,0-5.95,7.29c-1.85,2.62-3.57,5.35-5.23,8.14a306.28,306.28,0,0,0-17.25,35.28c-1.28,3-2.55,6.07-3.76,9.13s-2.28,6.18-3.41,9.27-2.41,6.13-3.8,9.13a46.41,46.41,0,0,1-5.17,8.66h0a1.11,1.11,0,0,1-1.56.19,1.15,1.15,0,0,1-.43-.88,39.69,39.69,0,0,1,1.47-10.06,91.48,91.48,0,0,1,3.17-9.47l7.67-18.45c2.6-6.13,5.32-12.22,8.22-18.24s6-12,9.42-17.79c1.73-2.9,3.53-5.77,5.51-8.57a65.44,65.44,0,0,1,6.6-8.07A33.79,33.79,0,0,1,196.38,4a17.68,17.68,0,0,1,5.36-2.73c.26-.08.54-.16.77-.21l.66-.13,1.32-.26c.87-.2,1.77-.26,2.66-.39a26.6,26.6,0,0,1,2.69-.2,22.43,22.43,0,0,1,2.72,0,32.93,32.93,0,0,1,10.73,2.13c.84.36,1.71.68,2.53,1.1l2.43,1.33c.77.51,1.52,1,2.28,1.56a10.11,10.11,0,0,1,1.08.85l1,.9a36.12,36.12,0,0,1,6.93,8.27,45.88,45.88,0,0,1,2.58,4.64,24.39,24.39,0,0,1,1.07,2.4l1,2.42-3-2.05h0a3.16,3.16,0,0,1,2.94,2.05A80.88,80.88,0,0,1,247,34.88c.73,3.11,1.29,6.25,1.73,9.38a149.32,149.32,0,0,1,1.28,18.84c.06,6.27-.18,12.52-.63,18.74l-.37,4.67-.46,4.64c-.33,3.1-.78,6.22-1.16,9.33l0-.48h0v0a3,3,0,0,1,0,.43l-1,5.83.06-.59a3.42,3.42,0,0,1-.35,1.47l.29-.85a106.15,106.15,0,0,1-6.71,22.72,55.42,55.42,0,0,1-6.18,10.52,33.17,33.17,0,0,1-9.38,8.47A29.6,29.6,0,0,1,212,152a36,36,0,0,1-12.44-1.19,50.51,50.51,0,0,1-11.18-4.43,58.35,58.35,0,0,1-9.67-6.61l0,0a1.08,1.08,0,0,1-.14-1.52A1.11,1.11,0,0,1,179.57,137.87Z"/><path class="cls-2" d="M210.83,141.28c-.71,0-1.41,0-2.12-.09-6.17-.5-12.09-3.18-17.6-7.94-14.87-12.88-11.27-41.85-7.8-58C188.17,52.66,198,29.8,206.7,20.92c4.87-5,10.35-7.38,16.32-7.19,10.73.36,19.14,9.26,20.49,10.77a3,3,0,0,1,.75,1.14c5.88,15.59,7.3,38,4.23,66.57-.3,2.81-.65,5.56-1.05,8.18a2,2,0,0,1,0,.24c-.42,2.16-.73,4-.93,5.47a.31.31,0,0,1,0,.1h0a33.79,33.79,0,0,1-.83,4.2C241.55,125.67,227.29,141.28,210.83,141.28ZM222.34,20.05c-4,0-7.63,1.73-11.12,5.29-6.74,6.89-16.72,28-21.73,51.27-5.4,25.11-3.3,44,5.76,51.86,4.47,3.87,9.17,6,14,6.42,13.66,1.13,26.69-12.6,30.29-26.11a25.93,25.93,0,0,0,.68-3.38s0-.06,0-.09c.21-1.63.53-3.52,1-5.78h0c.39-2.55.74-5.23,1-8h0c2.93-27.23,1.71-48.44-3.64-63.08-1.51-1.61-8.13-8.17-15.78-8.41Zm22,80h0Z"/><ellipse class="cls-2" cx="122.56" cy="176.1" rx="11.48" ry="18.95"/><ellipse class="cls-5" cx="124.92" cy="173.16" rx="3.46" ry="5.72"/><path class="cls-3" d="M132.78,258.76c-8.18,4.68-17,5.24-24.65,4.21l-.32-.05c-1.28-.17-2.53-.4-3.74-.65h0a61.85,61.85,0,0,1-16.69-6.17c-.66.19-1.31.37-2,.53-42,11-51.8-24.38-51.8-24.38-.7.14-1.39.27-2.06.36C10.85,235.73-.68,219.37,4.33,204.26a25.89,25.89,0,0,1,1.4-3.35c4.42-8.67,13.94-14.55,23.88-17.89,8.82-3,18-3.94,24.13-3.09a86.47,86.47,0,0,1,20.62,5.74c27.52,11.19,53.74,35,61.72,53,.4.88.75,1.74,1,2.6.16.46.33,1,.48,1.52.11.36.21.76.31,1.16s.19.81.27,1.21.14.73.2,1.11C139.13,251.68,137.48,256.08,132.78,258.76Z"/><g class="cls-4"><path class="cls-5" d="M135.87,256.2a16.49,16.49,0,0,0-.09-3.95c-.06-.38-.12-.74-.2-1.11s-.17-.8-.27-1.21-.2-.79-.3-1.16c-.16-.55-.33-1.06-.48-1.52a27.87,27.87,0,0,0-1.06-2.6c-8-18-34.2-41.84-61.72-53a86.34,86.34,0,0,0-20.62-5.74C45,185,35.82,186,27,189c-9.6,3.22-18.82,8.83-23.42,17,.12-.49.27-1,.43-1.45a23.55,23.55,0,0,1,1.4-3.35c4.42-8.68,13.94-14.56,23.88-17.9,8.82-3,18-3.93,24.12-3.09A86.68,86.68,0,0,1,74,186c27.52,11.19,53.75,35,61.73,53,.4.89.75,1.75,1.05,2.6.16.46.32,1,.48,1.52.1.37.21.76.31,1.16s.19.81.27,1.22.13.72.2,1.1C138.59,250.36,137.93,253.65,135.87,256.2Z"/></g><path class="cls-2" d="M114.42,266.6c-12.76,0-23.82-5.21-27.44-7.11-14.58,4-27.15,3.09-37.38-2.63-11-6.17-16.16-16.23-18.08-21.05-11,1.48-20.74-2-26.55-9.63a25,25,0,0,1-2.06-26.7C12.32,181,40.84,175,54.16,176.8c17.6,2.41,38.07,12.19,56.16,26.82,16.87,13.65,28.74,29.34,31,40.95,1.46,7.53-1,13.54-7,16.94A39.65,39.65,0,0,1,114.42,266.6ZM87.36,252.94a3.22,3.22,0,0,1,1.6.43c.23.14,23.43,13.4,42.25,2.65,2.27-1.3,5.15-3.77,3.89-10.25-1.94-10.06-13.23-24.67-28.75-37.23-17.22-13.93-36.56-23.22-53-25.48-13-1.78-37.48,5-44.75,19.28a18.71,18.71,0,0,0,1.44,20c4.85,6.35,13.23,8.83,23,6.81a3.16,3.16,0,0,1,3.69,2.25c0,.13,3.82,13.15,16.1,20,9,5,20.33,5.56,33.73,1.68A3.2,3.2,0,0,1,87.36,252.94Z"/><path class="cls-2" d="M35.6,183.78c.87-7.74,8.65-13.21,17.38-12.23s15.1,8,14.24,15.78-7.6,3.81-16.33,2.83S34.73,191.52,35.6,183.78Z"/><ellipse class="cls-5" cx="52.2" cy="176.87" rx="1.95" ry="5.55" transform="translate(-127.59 217.89) rotate(-86.41)"/><g class="cls-1"><path class="cls-2" d="M108.13,263l-.32-.05c-.85-.13-1.73-.28-2.63-.44l-1.11-.21h0a98.18,98.18,0,0,1-18.64-5.64,129.36,129.36,0,0,1-40.77-27.17s-5.46,1.38-13.09,3.15C10.85,235.73-.68,219.37,4.33,204.26,7.42,218,17.25,232.08,47.07,215.79c0,0,70.15,61.5,89,22.91h0a24.6,24.6,0,0,1,1,2.61c.16.46.33,1,.48,1.52a28.64,28.64,0,0,1,.78,3.48C139.72,255,137,267.37,108.13,263Z"/></g><ellipse class="cls-2" cx="81.81" cy="211.69" rx="3.56" ry="4.1"/><ellipse class="cls-2" cx="92.92" cy="221.5" rx="3.56" ry="4.1"/><ellipse class="cls-2" cx="81.81" cy="225.13" rx="3.56" ry="4.1"/><ellipse class="cls-2" cx="24.44" cy="200.37" rx="2.91" ry="3.35"/><ellipse class="cls-2" cx="33.52" cy="208.4" rx="2.91" ry="3.35"/><ellipse class="cls-2" cx="24.44" cy="211.37" rx="2.91" ry="3.35"/><path class="cls-2" d="M87.36,259.26a3.2,3.2,0,0,1-1.08-.19c-20.92-7.61-35.3-21.76-40-26.85a81.57,81.57,0,0,1-12.08,3.13A3.16,3.16,0,1,1,33,229.14c4.87-.93,11-2.51,12.25-3.4a3.18,3.18,0,0,1,4.23.59c.15.18,15.34,18.22,38.94,26.8a3.16,3.16,0,0,1-1.09,6.13Z"/><path class="cls-2" d="M47.08,231.51H47a3.17,3.17,0,0,1-3.05-3.28L45.27,191a3.16,3.16,0,1,1,6.32.23l-1.36,37.25A3.16,3.16,0,0,1,47.08,231.51Z"/><ellipse class="cls-2" cx="25.48" cy="155.27" rx="6.83" ry="12.26"/><ellipse class="cls-5" cx="23.8" cy="152.95" rx="2.45" ry="4.05"/><path class="cls-2" d="M138.43,256.61c.78,0,1.78-.07,2.69-.16s1.88-.2,2.82-.34c1.88-.26,3.75-.62,5.61-1.05a64.63,64.63,0,0,0,10.87-3.58,56.5,56.5,0,0,0,10-5.61l2.27-1.76c.37-.3.77-.57,1.12-.9l1.05-1c.69-.66,1.41-1.3,2.09-2l1.91-2.16a61.25,61.25,0,0,0,11.42-20.28,65.47,65.47,0,0,0,2.69-11.51,54.86,54.86,0,0,0,.46-11.88,55,55,0,0,1,.37,12,66,66,0,0,1-1.93,11.9,63.46,63.46,0,0,1-10.4,21.88l-1.89,2.46c-.68.77-1.4,1.51-2.1,2.27L176.39,246c-.35.38-.76.7-1.13,1.05l-2.32,2.07A61.43,61.43,0,0,1,162.58,256a70.2,70.2,0,0,1-11.51,4.7c-2,.6-4,1.14-6,1.57-1,.23-2,.42-3.09.59s-2,.32-3.25.42a3.33,3.33,0,0,1-.58-6.64h.31Z"/><path class="cls-5" d="M301.83,83.61A38.61,38.61,0,1,1,316,95.14L298.61,101Z"/><g class="cls-10"><path class="cls-5" d="M332.61,29a38.67,38.67,0,0,0-38.45,34.52,37.55,37.55,0,0,1-.23-4.13,38.69,38.69,0,0,1,77.37,0,40.74,40.74,0,0,1-.22,4.15A38.69,38.69,0,0,0,332.61,29Z"/></g><path class="cls-2" d="M298.61,103.57a2.62,2.62,0,0,1-2.56-3.08l3-16.25a40.84,40.84,0,0,1-7.74-24,41.26,41.26,0,1,1,24.54,37.75l-16.42,5.49A2.63,2.63,0,0,1,298.61,103.57Zm34-79.46a36.13,36.13,0,0,0-36.08,36.08A35.76,35.76,0,0,0,303.9,82a2.63,2.63,0,0,1,.49,2l-2.41,13,13.21-4.42a2.56,2.56,0,0,1,1.94.12,36.08,36.08,0,1,0,15.48-68.68Z"/><g class="cls-11"><path class="cls-2" d="M301.57,83.26a44.69,44.69,0,0,0,69.27-29.05,39.34,39.34,0,0,1,.46,6,38.69,38.69,0,0,1-55.29,35L298.61,101l3.22-17.35C301.74,83.49,301.66,83.37,301.57,83.26Z"/></g><path class="cls-12" d="M318.64,49h0c3.78-3.77,9.91-3.1,13.68.68l.59.59.59-.59c3.78-3.78,9.9-4.45,13.68-.68h0a9.68,9.68,0,0,1,0,13.69l-.59.58L334.71,75.13a2.53,2.53,0,0,1-3.6,0L319.23,63.25l-.59-.58A9.68,9.68,0,0,1,318.64,49Z"/></g></g></svg>