<svg xmlns="http://www.w3.org/2000/svg" xmlns:xlink="http://www.w3.org/1999/xlink" width="61.625" height="67" viewBox="0 0 61.625 67"><defs><style>.a{fill:#FF00009f;}.b{filter:url(#c);}.c{filter:url(#a);}</style><filter id="a" x="6" y="6" width="55.625" height="61" filterUnits="userSpaceOnUse"><feOffset dx="3" dy="3" input="SourceAlpha"/><feGaussianBlur stdDeviation="3" result="b"/><feFlood flood-opacity="0.651"/><feComposite operator="in" in2="b"/><feComposite in="SourceGraphic"/></filter><filter id="c" x="0" y="0" width="55.625" height="61" filterUnits="userSpaceOnUse"><feOffset dx="-3" dy="-3" input="SourceAlpha"/><feGaussianBlur stdDeviation="3" result="d"/><feFlood flood-color="#fff" flood-opacity="0.651"/><feComposite operator="in" in2="d"/><feComposite in="SourceGraphic"/></filter></defs><g transform="translate(12 12)"><g class="c" transform="matrix(1, 0, 0, 1, -12, -12)"><path class="a" d="M2.688,38.969A4.031,4.031,0,0,0,6.719,43H30.906a4.031,4.031,0,0,0,4.031-4.031V10.75H2.688Zm22.844-21.5a1.344,1.344,0,1,1,2.688,0V36.281a1.344,1.344,0,1,1-2.688,0Zm-8.063,0a1.344,1.344,0,1,1,2.688,0V36.281a1.344,1.344,0,1,1-2.688,0Zm-8.063,0a1.344,1.344,0,1,1,2.688,0V36.281a1.344,1.344,0,1,1-2.688,0ZM36.281,2.687H26.2l-.789-1.571A2.016,2.016,0,0,0,23.608,0h-9.6a1.992,1.992,0,0,0-1.8,1.117l-.789,1.571H1.344A1.344,1.344,0,0,0,0,4.031V6.719A1.344,1.344,0,0,0,1.344,8.062H36.281a1.344,1.344,0,0,0,1.344-1.344V4.031A1.344,1.344,0,0,0,36.281,2.687Z" transform="translate(12 12)"/></g><g class="b" transform="matrix(1, 0, 0, 1, -12, -12)"><path class="a" d="M2.688,38.969A4.031,4.031,0,0,0,6.719,43H30.906a4.031,4.031,0,0,0,4.031-4.031V10.75H2.688Zm22.844-21.5a1.344,1.344,0,1,1,2.688,0V36.281a1.344,1.344,0,1,1-2.688,0Zm-8.063,0a1.344,1.344,0,1,1,2.688,0V36.281a1.344,1.344,0,1,1-2.688,0Zm-8.063,0a1.344,1.344,0,1,1,2.688,0V36.281a1.344,1.344,0,1,1-2.688,0ZM36.281,2.687H26.2l-.789-1.571A2.016,2.016,0,0,0,23.608,0h-9.6a1.992,1.992,0,0,0-1.8,1.117l-.789,1.571H1.344A1.344,1.344,0,0,0,0,4.031V6.719A1.344,1.344,0,0,0,1.344,8.062H36.281a1.344,1.344,0,0,0,1.344-1.344V4.031A1.344,1.344,0,0,0,36.281,2.687Z" transform="translate(12 12)"/></g></g></svg>