<svg xmlns="http://www.w3.org/2000/svg" xmlns:xlink="http://www.w3.org/1999/xlink" width="96.5" height="96.5" viewBox="0 0 96.5 96.5"><defs><style>.a{fill:#82c91e;}.b{filter:url(#c);}.c{filter:url(#a);}</style><filter id="a" x="10" y="10" width="86.5" height="86.5" filterUnits="userSpaceOnUse"><feOffset dx="5" dy="5" input="SourceAlpha"/><feGaussianBlur stdDeviation="5" result="b"/><feFlood flood-opacity="0.651"/><feComposite operator="in" in2="b"/><feComposite in="SourceGraphic"/></filter><filter id="c" x="0" y="0" width="86.5" height="86.5" filterUnits="userSpaceOnUse"><feOffset dx="-5" dy="-5" input="SourceAlpha"/><feGaussianBlur stdDeviation="5" result="d"/><feFlood flood-color="#fff" flood-opacity="0.278"/><feComposite operator="in" in2="d"/><feComposite in="SourceGraphic"/></filter></defs><g transform="translate(20 20)"><g class="c" transform="matrix(1, 0, 0, 1, -20, -20)"><path class="a" d="M48.038,40.21A28.007,28.007,0,0,0,3.973,74L0,88.5l14.844-3.9a27.913,27.913,0,0,0,13.381,3.405h.013a27.82,27.82,0,0,0,19.8-47.8Zm-19.8,43.081A23.229,23.229,0,0,1,16.382,80.05l-.845-.5-8.8,2.308L9.08,73.265l-.555-.883A23.316,23.316,0,1,1,51.771,60.01,23.531,23.531,0,0,1,28.237,83.291ZM41,65.862c-.694-.353-4.137-2.043-4.78-2.27s-1.11-.353-1.576.353-1.8,2.27-2.22,2.749-.82.53-1.513.177c-4.111-2.056-6.81-3.67-9.522-8.324-.719-1.236.719-1.148,2.056-3.821a1.3,1.3,0,0,0-.063-1.223c-.177-.353-1.576-3.8-2.157-5.2-.568-1.362-1.148-1.173-1.576-1.2-.4-.025-.87-.025-1.337-.025a2.592,2.592,0,0,0-1.867.87A7.861,7.861,0,0,0,14,53.793c0,3.443,2.51,6.772,2.85,7.239S21.78,68.561,28.8,71.6c4.439,1.917,6.18,2.081,8.4,1.753,1.349-.2,4.137-1.69,4.717-3.329a5.851,5.851,0,0,0,.4-3.329C42.161,66.379,41.694,66.2,41,65.862Z" transform="translate(20 -12)"/></g><g class="b" transform="matrix(1, 0, 0, 1, -20, -20)"><path class="a" d="M48.038,40.21A28.007,28.007,0,0,0,3.973,74L0,88.5l14.844-3.9a27.913,27.913,0,0,0,13.381,3.405h.013a27.82,27.82,0,0,0,19.8-47.8Zm-19.8,43.081A23.229,23.229,0,0,1,16.382,80.05l-.845-.5-8.8,2.308L9.08,73.265l-.555-.883A23.316,23.316,0,1,1,51.771,60.01,23.531,23.531,0,0,1,28.237,83.291ZM41,65.862c-.694-.353-4.137-2.043-4.78-2.27s-1.11-.353-1.576.353-1.8,2.27-2.22,2.749-.82.53-1.513.177c-4.111-2.056-6.81-3.67-9.522-8.324-.719-1.236.719-1.148,2.056-3.821a1.3,1.3,0,0,0-.063-1.223c-.177-.353-1.576-3.8-2.157-5.2-.568-1.362-1.148-1.173-1.576-1.2-.4-.025-.87-.025-1.337-.025a2.592,2.592,0,0,0-1.867.87A7.861,7.861,0,0,0,14,53.793c0,3.443,2.51,6.772,2.85,7.239S21.78,68.561,28.8,71.6c4.439,1.917,6.18,2.081,8.4,1.753,1.349-.2,4.137-1.69,4.717-3.329a5.851,5.851,0,0,0,.4-3.329C42.161,66.379,41.694,66.2,41,65.862Z" transform="translate(20 -12)"/></g></g></svg>